<?xml version="1.0" encoding="utf-8"?>
<!-- Generator: Adobe Illustrator 26.0.2, SVG Export Plug-In . SVG Version: 6.00 Build 0)  -->
<svg version="1.1" id="Layer_1" xmlns="http://www.w3.org/2000/svg" xmlns:xlink="http://www.w3.org/1999/xlink" x="0px" y="0px"
	 viewBox="0 0 190.16 159.3" style="enable-background:new 0 0 190.16 159.3;" xml:space="preserve">
<g>
	<path d="M67.14,103.97c-0.21,8.25,0.28,8.8,7.64,8.81c28.49,0.04,56.98,0.06,85.48,0.11c1.66,0,3.38-0.11,4.98,0.24
		c3.73,0.82,5.88,3.32,5.62,7.13c-0.25,3.74-2.52,6.06-6.37,6.51c-1.15,0.14-2.33,0.07-3.5,0.07c-31.66-0.03-63.32-0.06-94.97-0.11
		c-7.05-0.01-9.06-1.67-10.72-8.47c-8.01-32.81-16.13-65.58-23.97-98.43c-1.04-4.36-2.7-6.12-7.28-5.79
		c-5.3,0.38-10.66,0.12-15.99-0.04c-5.2-0.16-8.1-2.77-8.06-6.93c0.04-4.1,3.14-6.97,8.1-7.02c8.66-0.1,17.33,0,25.99,0.08
		c4.35,0.04,7.24,2.02,8.25,6.46c0.97,4.22,2.46,8.34,3.04,12.6c0.54,3.99,2.53,4.57,6.03,4.56c42.32-0.07,84.64,0,126.96,0.03
		c1.5,0,3.01-0.08,4.5,0.03c5.31,0.41,8.34,4.14,6.95,9.26c-4.75,17.5-9.76,34.92-14.59,52.4c-1.1,4-3.86,5.59-7.63,6.05
		c-22.31,2.72-44.62,5.42-66.93,8.16C89.47,101.07,78.27,102.54,67.14,103.97z"/>
	<path d="M135.01,145.56c0.03-7.48,6.22-13.68,13.67-13.68c7.55,0,13.59,6.06,13.61,13.65c0.02,7.53-6.13,13.76-13.59,13.76
		C141.29,159.29,134.98,152.97,135.01,145.56z"/>
	<path d="M64.76,145.68c-0.04-7.72,5.81-13.74,13.39-13.79c7.48-0.05,13.73,6.07,13.83,13.53c0.1,7.39-6.17,13.8-13.57,13.87
		C70.88,159.36,64.79,153.28,64.76,145.68z"/>
</g>
</svg>
